<svg width="192" height="73" viewBox="0 0 192 73" fill="none" xmlns="http://www.w3.org/2000/svg">
<path d="M17.5273 20.796L16.6273 19.104L0.0673125 28.14V29.544L16.6273 38.58L17.5273 36.888L2.29931 28.824L17.5273 20.796ZM43.5036 34.44H41.4156L39.8316 40.524C38.6436 40.992 37.5276 41.208 36.3036 41.208C30.9036 41.208 26.9436 37.176 26.9436 28.68C26.9436 20.256 30.9756 16.116 36.3036 16.116C37.4556 16.116 38.4996 16.296 39.5436 16.728L41.1276 22.884H43.1796L43.2516 16.656C40.8396 15.288 38.4996 14.64 35.6556 14.64C27.9516 14.64 21.5796 19.644 21.5796 28.644C21.5796 37.608 27.5196 42.684 35.5116 42.684C38.6436 42.684 41.2356 41.928 43.5396 40.632L43.5036 34.44ZM52.0451 28.644C52.0451 21.732 54.2771 16.116 59.1011 16.116C63.9251 16.116 66.1931 21.732 66.1931 28.644C66.1931 35.664 63.9251 41.208 59.1011 41.208C54.2771 41.208 52.0451 35.664 52.0451 28.644ZM59.1011 14.64C52.5851 14.64 46.6451 19.644 46.6451 28.644C46.6451 37.824 52.5491 42.684 59.1011 42.684C65.6531 42.684 71.5211 37.68 71.5211 28.644C71.5211 19.536 65.6531 14.64 59.1011 14.64ZM84.0179 25.728C81.3539 24.576 79.8779 23.172 79.8779 20.652C79.8779 17.808 82.0739 16.224 85.2419 16.224C86.2859 16.224 87.1139 16.368 87.9419 16.764L89.4539 22.308H91.4699L91.7219 16.656C89.8499 15.432 87.5459 14.64 84.7379 14.64C79.3019 14.64 75.4139 17.34 75.4139 22.092C75.4139 26.232 78.0059 28.572 82.5419 30.552L84.1979 31.272C87.3659 32.604 88.5899 33.864 88.5899 36.384C88.5899 39.372 86.3579 41.1 82.6859 41.1C81.1739 41.1 80.0219 40.92 78.7979 40.38L77.2859 34.584H75.2699L75.0539 40.56C77.0699 41.856 80.1659 42.684 83.1539 42.684C89.3819 42.684 93.0899 39.552 93.0899 34.836C93.0899 30.948 91.1459 28.788 85.8179 26.484L84.0179 25.728ZM128.905 16.584V15.288H120.265L112.489 35.592L104.497 15.288H95.7131V16.584L99.4931 17.052L99.3491 40.308L95.5331 40.74V42H104.893V40.74L101.113 40.308V28.824C101.113 27.312 101.041 22.524 100.933 18.924L109.969 42H111.733L120.517 18.78L120.445 30.12C120.373 33.252 120.445 36.852 120.337 40.416L117.025 40.74V42H128.905V40.74L125.449 40.416C125.413 36.816 125.413 33.18 125.413 29.544V27.78C125.413 24.18 125.413 20.544 125.449 16.908L128.905 16.584ZM137.018 28.644C137.018 21.732 139.25 16.116 144.074 16.116C148.898 16.116 151.166 21.732 151.166 28.644C151.166 35.664 148.898 41.208 144.074 41.208C139.25 41.208 137.018 35.664 137.018 28.644ZM144.074 14.64C137.558 14.64 131.618 19.644 131.618 28.644C131.618 37.824 137.522 42.684 144.074 42.684C150.626 42.684 156.494 37.68 156.494 28.644C156.494 19.536 150.626 14.64 144.074 14.64ZM158.237 48.444H160.937L171.665 13.452H169.037L158.237 48.444ZM175.388 19.068L174.488 20.76L189.752 28.824L174.488 36.852L175.388 38.544L191.948 29.544V28.14L175.388 19.068ZM47.7713 63.698C47.9153 63.716 48.0593 63.662 48.1133 63.536C49.0133 61.52 49.7333 58.37 49.8053 56.192L50.1113 55.382C50.1653 55.238 50.1473 55.148 50.0753 55.076C49.8053 54.896 49.1933 54.554 48.8693 54.392C48.7613 54.338 48.5993 54.338 48.4733 54.392L47.6633 54.788C46.2773 54.878 41.2193 54.968 40.3013 54.968C39.7613 54.968 38.9693 54.914 38.3573 54.806L38.2133 55.076C38.1773 55.166 38.1773 55.256 38.2853 55.346C38.7173 55.778 39.3653 56.264 39.9953 56.57C40.4633 56.426 41.2733 56.3 41.7773 56.264C42.6053 56.192 45.8813 56.12 47.4833 56.102C47.4833 56.84 47.4833 57.722 47.4473 58.622C45.6473 58.874 41.7953 59.126 39.7073 59.18C39.0593 59.18 38.2673 59.144 37.6373 59.036L37.4753 59.342C37.4213 59.414 37.4573 59.486 37.5293 59.558C38.0153 60.026 38.7173 60.494 39.3653 60.8C39.7793 60.656 40.4993 60.548 40.9673 60.512C42.8213 60.404 45.6473 60.116 47.3933 59.81C47.3213 61.088 47.1953 62.348 47.0333 63.266C47.0153 63.5 47.0693 63.572 47.1953 63.59L47.7713 63.698ZM48.8873 65.768C48.3293 65.804 46.3673 65.858 44.2793 65.894L44.3333 63.536L44.4413 62.528C44.4773 62.33 44.4053 62.204 44.2073 62.15C43.7033 62.006 42.3353 61.862 41.6693 61.88C41.4713 61.88 41.4173 61.916 41.3993 61.988L41.2553 62.546C41.6513 62.69 42.1193 62.996 42.2813 63.23L42.3173 65.912C40.3193 65.948 38.5193 65.948 38.0153 65.948C37.3493 65.93 36.4133 65.858 35.7113 65.732L35.5493 66.056C35.5133 66.128 35.5313 66.236 35.6033 66.29C36.1073 66.776 36.8993 67.298 37.6193 67.586C38.1053 67.442 39.1853 67.244 39.6713 67.208C40.7333 67.136 48.1853 67.064 49.4273 67.064C50.0033 67.064 51.2453 67.1 51.7133 67.154C51.9473 67.046 52.2533 66.632 52.2533 66.182C52.2533 65.984 52.1273 65.84 51.9473 65.768C51.4973 65.606 50.4173 65.444 49.6613 65.426L48.8873 65.768ZM63.0681 68C61.9341 68 61.1061 67.352 61.1061 66.164C61.1061 64.994 61.9341 64.328 63.0681 64.328C64.1841 64.328 65.0121 64.994 65.0121 66.164C65.0121 67.352 64.1841 68 63.0681 68ZM63.0681 62.942C60.8181 62.942 59.0001 64.184 59.0001 66.164C59.0001 68.288 60.8181 69.62 63.0681 69.62C65.3181 69.62 67.1181 68.288 67.1181 66.164C67.1181 64.184 65.3181 62.942 63.0681 62.942ZM63.9321 53.33C64.5441 53.564 65.1021 53.96 65.3541 54.356V59.882C62.9601 60.458 59.5581 60.818 57.3981 60.836C57.1281 60.836 57.0381 60.728 57.0381 60.494V56.408L62.2041 56.228C62.3661 56.228 62.4561 56.192 62.5281 56.12C62.6721 55.958 62.7981 55.616 62.7981 55.166C62.7981 54.986 62.7081 54.86 62.4921 54.824C62.0961 54.734 61.3041 54.698 60.7821 54.698L60.2421 55.058C59.6841 55.112 57.8121 55.166 57.0561 55.184C56.4441 55.058 54.8421 54.986 54.1581 54.986C54.0321 54.986 53.9781 55.022 53.9601 55.094L53.8161 55.652C54.2841 55.814 54.7161 56.084 54.9501 56.372V60.314C54.9501 60.728 55.0041 61.07 55.0581 61.286C55.2921 62.006 55.8681 62.456 56.6781 62.456C56.8761 62.456 57.1281 62.456 57.3801 62.42C59.5941 62.258 62.8341 61.682 65.3721 60.908C65.4081 61.736 65.4801 62.744 65.5701 63.176H66.7761C67.1541 62.294 67.4241 60.548 67.4241 59.486V54.68L67.4961 53.618C67.5141 53.384 67.4241 53.222 67.2441 53.132C66.6141 52.862 65.2641 52.592 64.4181 52.556C64.2381 52.556 64.1841 52.61 64.1481 52.682L63.9321 53.33ZM71.7949 63.068C71.8489 63.122 71.9209 63.122 72.0289 63.086C74.6749 62.15 76.9609 60.674 78.5629 59L84.2509 62.096C84.4669 62.222 84.7369 62.33 84.9169 62.312C85.2589 62.312 85.6369 61.988 85.6549 61.61C85.6729 61.43 85.5469 61.214 85.2949 60.944C85.0069 60.638 84.3409 60.098 83.8549 59.792L82.6309 59.648L79.4089 58.01C79.8589 57.416 80.2189 56.822 80.4889 56.228C80.5609 56.102 80.5969 55.922 80.5969 55.724C80.5969 55.562 80.4889 55.4 80.2729 55.274C79.7509 54.95 78.5089 54.536 77.6269 54.392C77.4649 54.356 77.3929 54.392 77.3389 54.482L77.0149 55.004C77.4469 55.238 77.8609 55.634 78.0229 55.958C77.0149 58.316 74.7289 60.674 71.5789 62.492C71.5069 62.546 71.4709 62.618 71.5249 62.69L71.7949 63.068ZM83.6569 65.534C82.3789 65.624 73.9729 65.732 72.7849 65.714C72.1189 65.696 71.1829 65.624 70.4809 65.498L70.3189 65.822C70.2829 65.894 70.3009 66.002 70.3729 66.056C70.8769 66.542 71.6689 67.082 72.3889 67.352C72.8749 67.208 73.9549 67.01 74.4409 66.974C75.5029 66.902 82.9549 66.83 84.1969 66.83C84.7729 66.83 86.0149 66.866 86.4829 66.92C86.7169 66.812 87.0229 66.398 87.0229 65.948C87.0229 65.75 86.8969 65.606 86.7169 65.534C86.2669 65.372 85.1869 65.228 84.4309 65.192L83.6569 65.534ZM98.0356 63.446C97.9996 63.338 97.9096 63.32 97.7836 63.338C96.3796 63.662 93.7516 63.914 92.1316 63.95C91.8976 63.95 91.8076 63.842 91.8076 63.626V61.052L95.5876 60.8C95.7496 60.782 95.8936 60.746 95.9836 60.674C96.0916 60.566 96.1816 60.242 96.1816 59.828C96.1816 59.666 96.0556 59.522 95.8576 59.486C95.5156 59.432 94.7956 59.396 94.3096 59.396L93.7696 59.702C93.4096 59.756 92.4556 59.81 91.8076 59.828V57.128L96.5956 56.966C96.7396 56.966 96.8476 56.93 96.9196 56.84C97.0636 56.696 97.1896 56.336 97.1896 55.886C97.1896 55.706 97.0816 55.58 96.8656 55.526C96.4516 55.454 95.6596 55.418 95.1196 55.418L94.5796 55.778C94.0936 55.832 92.5096 55.904 91.8436 55.922C91.2316 55.796 89.6296 55.706 88.9276 55.706C88.8196 55.706 88.7656 55.742 88.7296 55.814L88.5856 56.372C89.0716 56.534 89.4856 56.804 89.7376 57.092V63.518C89.7376 63.968 89.7736 64.382 89.8096 64.472C90.0976 65.318 90.5296 65.606 91.5556 65.606C91.7716 65.606 92.0596 65.57 92.3476 65.552C94.0216 65.39 96.5056 64.814 97.9996 64.184C98.1076 64.13 98.1616 64.058 98.1436 63.95L98.0356 63.446ZM98.6836 53.312C99.3316 53.564 99.8896 53.96 100.142 54.374V59.342C99.5656 59.36 98.8456 59.378 98.4316 59.378C97.9456 59.378 97.2976 59.342 96.8476 59.27L96.7036 59.558C96.6496 59.648 96.6676 59.72 96.7396 59.792C97.1356 60.188 97.6036 60.566 98.1796 60.872C98.4856 60.746 99.0616 60.602 99.3676 60.566C99.5116 60.548 99.8176 60.53 100.142 60.53V66.002C100.142 66.848 100.25 69.314 100.376 69.98H101.546C101.978 68.756 102.23 66.542 102.23 65.354V54.716L102.302 53.618C102.32 53.384 102.248 53.222 102.05 53.132C101.402 52.862 100.016 52.592 99.1696 52.556C98.9896 52.556 98.9356 52.61 98.8996 52.682L98.6836 53.312ZM116.032 53.312C116.662 53.564 117.238 53.96 117.49 54.374V62.312C115.078 62.924 111.766 63.302 109.624 63.338C109.39 63.338 109.282 63.23 109.282 62.996V57.29L114.268 57.092C114.43 57.092 114.52 57.056 114.61 56.966C114.736 56.84 114.862 56.48 114.862 56.03C114.862 55.85 114.772 55.724 114.556 55.67C114.16 55.598 113.35 55.562 112.846 55.562L112.306 55.904C111.784 55.976 109.966 56.048 109.21 56.084C108.544 55.958 107.032 55.886 106.366 55.886C106.24 55.886 106.186 55.922 106.15 55.994L106.024 56.552C106.51 56.714 106.942 56.984 107.194 57.272V62.87C107.194 63.284 107.23 63.644 107.302 63.86C107.536 64.616 108.13 65.102 109.012 65.102C109.21 65.102 109.48 65.102 109.732 65.066C111.874 64.886 114.988 64.292 117.49 63.5V66.002C117.49 66.848 117.598 69.314 117.724 69.98H118.894C119.326 68.756 119.578 66.542 119.578 65.354V54.716L119.65 53.618C119.668 53.384 119.578 53.222 119.398 53.132C118.75 52.862 117.364 52.592 116.5 52.556C116.32 52.556 116.284 52.61 116.248 52.682L116.032 53.312ZM135.811 65.606C135.307 65.642 133.669 65.696 131.815 65.714V61.664H135.631C135.775 61.52 135.919 61.124 135.919 60.764C135.919 60.62 135.847 60.53 135.757 60.476L135.343 60.314C135.595 59.072 135.793 57.506 135.883 56.21L136.171 55.418C136.225 55.274 136.207 55.184 136.117 55.13C135.883 54.986 135.253 54.698 134.947 54.554C134.821 54.518 134.677 54.518 134.551 54.554L133.759 54.968C132.463 55.04 129.223 55.058 127.873 55.058C127.099 54.914 125.713 54.806 125.011 54.806C124.867 54.806 124.813 54.86 124.795 54.914L124.633 55.49C125.065 55.652 125.515 55.922 125.731 56.21L126.073 61.106C126.127 61.538 126.235 62.024 126.379 62.366H127.441C127.639 62.15 127.765 61.934 127.855 61.682H129.781V65.75C127.567 65.786 125.479 65.786 124.939 65.786C124.273 65.786 123.337 65.714 122.635 65.588L122.473 65.894C122.437 65.984 122.455 66.092 122.527 66.146C123.031 66.632 123.823 67.154 124.543 67.424C125.029 67.28 126.109 67.1 126.595 67.064C127.657 66.992 135.109 66.92 136.351 66.92C136.927 66.92 138.169 66.956 138.637 67.01C138.871 66.902 139.177 66.488 139.177 66.038C139.177 65.822 139.051 65.678 138.871 65.624C138.421 65.462 137.341 65.3 136.585 65.264L135.811 65.606ZM127.909 56.318C129.655 56.282 131.905 56.264 133.687 56.264L133.597 60.26L133.165 60.368C131.923 60.386 129.457 60.422 127.927 60.404L127.909 56.318ZM154.402 64.022C154.456 63.914 154.438 63.824 154.348 63.752C154.15 63.626 153.61 63.356 153.322 63.23C153.214 63.194 153.052 63.194 152.944 63.23L152.17 63.536C151.144 63.608 148.57 63.644 147.508 63.662C146.788 63.554 145.474 63.446 144.772 63.446C144.646 63.446 144.574 63.5 144.556 63.572L144.412 64.13C144.808 64.274 145.204 64.544 145.42 64.778L145.726 68.756C145.762 69.17 145.852 69.602 146.014 69.908H147.148C147.328 69.728 147.436 69.548 147.508 69.332L153.916 69.26C154.078 69.116 154.24 68.738 154.24 68.342C154.24 68.198 154.168 68.108 154.042 68.036L153.7 67.856C153.916 66.92 154.078 65.804 154.15 64.832L154.402 64.022ZM147.562 64.994C148.948 64.958 150.64 64.904 152.044 64.904L151.99 67.82L151.612 67.928C150.604 67.982 148.768 68 147.598 68L147.562 64.994ZM149.344 58.28C149.344 56.174 147.616 54.68 145.222 54.68C142.81 54.68 141.118 56.174 141.118 58.28C141.118 60.404 142.81 61.916 145.222 61.916C147.616 61.916 149.344 60.404 149.344 58.28ZM143.152 58.28C143.152 57.002 144.016 56.174 145.222 56.174C146.446 56.174 147.292 57.002 147.292 58.28C147.292 59.576 146.446 60.368 145.222 60.368C144.016 60.368 143.152 59.576 143.152 58.28ZM152.26 59.774C152.26 60.476 152.35 62.222 152.494 62.78H153.7C154.06 61.97 154.348 60.278 154.348 59.234V54.68L154.402 53.618C154.42 53.384 154.348 53.222 154.15 53.132C153.538 52.862 152.17 52.592 151.342 52.556C151.162 52.556 151.09 52.61 151.072 52.682L150.856 53.33C151.468 53.564 152.008 53.96 152.26 54.356V59.774Z" fill="black"/>
</svg>
