<svg width="24" height="24" viewBox="0 0 24 24" fill="none" xmlns="http://www.w3.org/2000/svg">
<path d="M18.419 21.814C18.58 21.93 18.782 22 19 22C19.552 22 20 21.552 20 21V5C20 4.172 19.663 3.42 19.121 2.879C18.579 2.338 17.828 2 17 2H7.00001C6.17201 2 5.42001 2.337 4.87901 2.879C4.33801 3.421 4.00001 4.172 4.00001 5V21C3.99901 21.199 4.06001 21.404 4.18601 21.581C4.50701 22.03 5.13201 22.135 5.58101 21.813L12 17.229L18.419 21.814ZM18 19.057L12.581 15.186C12.226 14.932 11.762 14.944 11.419 15.186L6.00001 19.057V5C6.00001 4.724 6.11101 4.475 6.29301 4.293C6.47501 4.111 6.72401 4 7.00001 4H17C17.276 4 17.525 4.111 17.707 4.293C17.889 4.475 18 4.724 18 5V19.057Z" fill="black"/>
</svg>
