<svg width="24" height="24" viewBox="0 0 24 24" fill="none" xmlns="http://www.w3.org/2000/svg">
<path d="M13.707 17.707L18.707 12.707C19.098 12.316 19.098 11.683 18.707 11.293L13.707 6.29301C13.316 5.90201 12.683 5.90201 12.293 6.29301C11.903 6.68401 11.902 7.31701 12.293 7.70701L16.586 12L12.293 16.293C11.902 16.684 11.902 17.317 12.293 17.707C12.684 18.097 13.317 18.098 13.707 17.707V17.707ZM6.70701 17.707L11.707 12.707C12.098 12.316 12.098 11.683 11.707 11.293L6.70701 6.29301C6.31601 5.90201 5.68301 5.90201 5.29301 6.29301C4.90301 6.68401 4.90201 7.31701 5.29301 7.70701L9.58601 12L5.29301 16.293C4.90201 16.684 4.90201 17.317 5.29301 17.707C5.68401 18.097 6.31701 18.098 6.70701 17.707V17.707Z" fill="black"/>
</svg>
