<svg width="24" height="24" viewBox="0 0 24 24" fill="none" xmlns="http://www.w3.org/2000/svg">
<path d="M11.707 16.293L7.41401 12L11.707 7.707C12.098 7.316 12.098 6.683 11.707 6.293C11.316 5.903 10.683 5.902 10.293 6.293L5.29301 11.293C4.90201 11.684 4.90201 12.317 5.29301 12.707L10.293 17.707C10.684 18.098 11.317 18.098 11.707 17.707C12.097 17.316 12.098 16.683 11.707 16.293ZM18.707 16.293L14.414 12L18.707 7.707C19.098 7.316 19.098 6.683 18.707 6.293C18.316 5.903 17.683 5.902 17.293 6.293L12.293 11.293C11.902 11.684 11.902 12.317 12.293 12.707L17.293 17.707C17.684 18.098 18.317 18.098 18.707 17.707C19.097 17.316 19.098 16.683 18.707 16.293Z" fill="black"/>
</svg>
