<svg width="24" height="24" viewBox="0 0 24 24" fill="none" xmlns="http://www.w3.org/2000/svg">
<path d="M5.29301 6.70701L10.586 12L5.29301 17.293C4.90201 17.684 4.90201 18.317 5.29301 18.707C5.68401 19.097 6.31701 19.098 6.70701 18.707L12 13.414L17.293 18.707C17.684 19.098 18.317 19.098 18.707 18.707C19.097 18.316 19.098 17.683 18.707 17.293L13.414 12L18.707 6.70701C19.098 6.31601 19.098 5.68301 18.707 5.29301C18.316 4.90301 17.683 4.90201 17.293 5.29301L12 10.586L6.70701 5.29301C6.31601 4.90201 5.68301 4.90201 5.29301 5.29301C4.90301 5.68401 4.90201 6.31701 5.29301 6.70701Z" fill="black"/>
</svg>
