<svg width="24" height="24" viewBox="0 0 24 24" fill="none" xmlns="http://www.w3.org/2000/svg">
<path d="M19.845 3.99999L13.236 11.814C13.089 11.987 13 12.213 13 12.46V19.382L11 18.382V12.46C11.001 12.233 10.923 12.003 10.764 11.814L4.155 3.99999H19.845ZM22 1.99999H2C1.448 1.99999 1 2.44799 1 2.99999C1 3.24699 1.089 3.47299 1.236 3.64599L9 12.826V19C9 19.389 9.222 19.727 9.553 19.894L13.553 21.894C14.047 22.141 14.648 21.941 14.895 21.447C14.967 21.301 15.001 21.146 15 21V12.826L22.764 3.64599C23.121 3.22399 23.068 2.59299 22.646 2.23699C22.457 2.07699 22.227 1.99899 22 1.99999V1.99999Z" fill="black"/>
</svg>
