<svg width="24" height="24" viewBox="0 0 24 24" fill="none" xmlns="http://www.w3.org/2000/svg">
<g clip-path="url(#clip0_9_114)">
<path d="M8.713 18.042C7.445 18.422 6.653 18.377 6.13 18.212C5.899 18.139 5.699 18.036 5.516 17.91C5.105 17.626 4.789 17.235 4.397 16.738C4.041 16.287 3.547 15.631 2.846 15.262C2.661 15.164 2.46 15.085 2.242 15.03C1.706 14.896 1.163 15.222 1.029 15.758C0.895 16.294 1.221 16.837 1.757 16.971C1.831 16.994 1.912 17.031 1.912 17.031C2.164 17.164 2.399 17.435 2.826 17.977C3.192 18.441 3.682 19.075 4.379 19.556C4.711 19.785 5.09 19.982 5.528 20.12C6.543 20.441 7.764 20.416 9.288 19.958C9.817 19.799 10.117 19.242 9.958 18.713C9.799 18.184 9.242 17.884 8.713 18.043V18.042ZM17 22V18.208C17.052 17.524 16.944 16.865 16.708 16.266C17.485 16.095 18.271 15.839 19.005 15.443C21.088 14.319 22.501 12.201 22.501 8.52C22.501 7.017 21.985 5.633 21.122 4.539C21.477 3.194 21.348 1.813 20.829 0.606001C20.707 0.323001 20.47 0.124001 20.195 0.0420012C19.838 -0.0639988 18.463 -0.266999 15.822 1.404C13.549 0.863001 11.265 0.895001 9.176 1.402C6.537 -0.266999 5.163 -0.0639988 4.806 0.0420012C4.51 0.130001 4.285 0.342001 4.171 0.607001C3.617 1.899 3.547 3.279 3.879 4.539C2.949 5.717 2.492 7.14 2.5 8.556C2.5 12.178 3.889 14.279 5.941 15.415C6.693 15.831 7.501 16.1 8.298 16.282C8.113 16.75 8.012 17.243 7.994 17.738C7.989 17.879 7.991 18.021 7.999 18.162L8 22C8 22.552 8.448 23 9 23C9.552 23 10 22.552 10 22V18.13C10 18.109 9.999 18.085 9.998 18.061C9.992 17.977 9.991 17.893 9.994 17.809C10.014 17.241 10.235 16.683 10.659 16.245C10.804 16.096 10.905 15.898 10.933 15.673C11.001 15.125 10.612 14.625 10.064 14.557C9.724 14.515 9.387 14.463 9.058 14.398C8.268 14.242 7.54 14.013 6.911 13.665C5.606 12.942 4.52 11.594 4.501 8.623C4.514 7.382 4.92 6.304 5.725 5.458C5.982 5.185 6.075 4.787 5.937 4.418C5.657 3.67 5.596 2.838 5.797 2.026C6.288 2.133 7.151 2.442 8.444 3.308C8.679 3.465 8.977 3.522 9.269 3.441C11.266 2.884 13.511 2.839 15.739 3.443C16.01 3.516 16.308 3.476 16.557 3.308C17.85 2.442 18.713 2.133 19.204 2.026C19.393 2.792 19.361 3.621 19.063 4.418C18.934 4.77 19.005 5.173 19.276 5.458C20.034 6.253 20.5 7.33 20.5 8.518C20.5 11.593 19.386 12.963 18.055 13.681C17.432 14.017 16.712 14.236 15.932 14.381C15.61 14.441 15.281 14.487 14.949 14.524C14.739 14.547 14.531 14.638 14.365 14.799C13.968 15.183 13.957 15.816 14.341 16.213C14.408 16.283 14.471 16.356 14.529 16.433C14.869 16.882 15.05 17.448 15.003 18.05C15.003 18.074 15.002 18.101 15 18.128V22C15 22.552 15.448 23 16 23C16.552 23 17 22.552 17 22V22Z" fill="black"/>
</g>
<defs>
<clipPath id="clip0_9_114">
<rect width="24" height="24" fill="white"/>
</clipPath>
</defs>
</svg>
