<svg width="24" height="24" viewBox="0 0 24 24" fill="none" xmlns="http://www.w3.org/2000/svg">
<path d="M20.133 5.317C21.013 6.198 21.452 7.348 21.452 8.501C21.452 9.654 21.012 10.804 20.133 11.683L12 19.816L3.86701 11.683C2.98801 10.804 2.54901 9.654 2.54901 8.5C2.54901 7.346 2.98801 6.196 3.86701 5.317C4.74601 4.438 5.89601 3.999 7.05001 3.999C8.20401 3.999 9.35401 4.438 10.233 5.317L11.293 6.377C11.684 6.768 12.317 6.768 12.707 6.377L13.769 5.315C14.648 4.436 15.798 3.997 16.951 3.998C18.104 3.999 19.254 4.438 20.133 5.317V5.317ZM21.547 3.903C20.278 2.634 18.613 1.999 16.951 1.998C15.289 1.997 13.624 2.632 12.354 3.901L12 4.256L11.647 3.903C10.378 2.634 8.71201 1.999 7.05001 1.999C5.38801 1.999 3.72201 2.634 2.45301 3.903C1.18401 5.172 0.549011 6.838 0.549011 8.5C0.549011 10.162 1.18401 11.828 2.45301 13.097L11.293 21.937C11.684 22.328 12.317 22.328 12.707 21.937L21.547 13.097C22.816 11.828 23.451 10.163 23.452 8.501C23.453 6.839 22.818 5.174 21.547 3.903V3.903Z" fill="black"/>
</svg>
