<svg width="24" height="24" viewBox="0 0 24 24" fill="none" xmlns="http://www.w3.org/2000/svg">
<path d="M23 12C23 8.963 21.768 6.211 19.778 4.222C17.788 2.233 15.037 1 12 1C8.963 1 6.211 2.232 4.222 4.222C2.233 6.212 1 8.963 1 12C1 15.037 2.232 17.789 4.222 19.778C6.212 21.767 8.963 23 12 23C15.037 23 17.789 21.768 19.778 19.778C21.767 17.788 23 15.037 23 12ZM21 12C21 14.486 19.994 16.734 18.364 18.364C16.734 19.994 14.486 21 12 21C9.514 21 7.266 19.994 5.636 18.364C4.006 16.734 3 14.486 3 12C3 9.514 4.006 7.266 5.636 5.636C7.266 4.006 9.514 3 12 3C14.486 3 16.734 4.006 18.364 5.636C19.994 7.266 21 9.514 21 12ZM10.033 9.332C10.216 8.811 10.592 8.414 11.055 8.192C11.518 7.97 12.062 7.925 12.583 8.109C13.041 8.27 13.402 8.579 13.633 8.968C13.816 9.275 13.917 9.633 13.919 10.005C13.919 10.16 13.88 10.314 13.802 10.469C13.722 10.629 13.599 10.794 13.434 10.959C12.725 11.668 11.603 12.051 11.603 12.051C11.079 12.226 10.796 12.792 10.971 13.316C11.146 13.84 11.712 14.123 12.236 13.948C12.236 13.948 13.78 13.442 14.849 12.373C15.128 12.094 15.394 11.759 15.592 11.363C15.792 10.963 15.92 10.505 15.92 9.994C15.916 9.263 15.716 8.557 15.353 7.945C14.89 7.167 14.163 6.543 13.248 6.221C12.206 5.855 11.113 5.946 10.191 6.388C9.269 6.83 8.513 7.626 8.147 8.668C7.963 9.189 8.237 9.76 8.758 9.943C9.279 10.126 9.85 9.852 10.033 9.332ZM12 18C12.552 18 13 17.552 13 17C13 16.448 12.552 16 12 16C11.448 16 11 16.448 11 17C11 17.552 11.448 18 12 18Z" fill="black"/>
</svg>
