<svg width="24" height="24" viewBox="0 0 24 24" fill="none" xmlns="http://www.w3.org/2000/svg">
<path d="M3 7.921L11.427 13.82C11.767 14.055 12.222 14.066 12.574 13.82L21 7.921V18C21 18.272 20.89 18.521 20.705 18.705C20.52 18.889 20.272 19 20 19H4C3.728 19 3.479 18.89 3.295 18.705C3.111 18.52 3 18.272 3 18V7.921ZM1 5.983C1 5.993 1 6.003 1 6.013V18C1 18.828 1.34 19.579 1.88 20.12C2.42 20.661 3.172 21 4 21H20C20.828 21 21.579 20.66 22.12 20.12C22.661 19.58 23 18.828 23 18V6.012C23 6.002 23 5.992 23 5.982C22.995 5.161 22.657 4.417 22.12 3.88C21.579 3.34 20.828 3 20 3H4C3.172 3 2.421 3.34 1.88 3.88C1.343 4.417 1.005 5.161 1 5.983V5.983ZM20.894 5.554L12 11.779L3.106 5.554C3.154 5.458 3.218 5.371 3.294 5.295C3.479 5.11 3.728 5 4 5H20C20.272 5 20.521 5.11 20.705 5.295C20.781 5.371 20.845 5.459 20.893 5.554H20.894Z" fill="black"/>
</svg>
