<svg width="24" height="24" viewBox="0 0 24 24" fill="none" xmlns="http://www.w3.org/2000/svg">
<path d="M17.586 8H14V4.414L17.586 8ZM20.707 8.293L13.707 1.293C13.615 1.201 13.505 1.127 13.383 1.076C13.261 1.025 13.13 1 13 1H6C5.172 1 4.42 1.337 3.879 1.879C3.338 2.421 3 3.172 3 4V20C3 20.828 3.337 21.58 3.879 22.121C4.421 22.662 5.172 23 6 23H18C18.828 23 19.58 22.663 20.121 22.121C20.662 21.579 21 20.828 21 20V9C21 8.724 20.888 8.474 20.707 8.293ZM12 3V9C12 9.552 12.448 10 13 10H19V20C19 20.276 18.889 20.525 18.707 20.707C18.525 20.889 18.276 21 18 21H6C5.724 21 5.475 20.889 5.293 20.707C5.111 20.525 5 20.276 5 20V4C5 3.724 5.111 3.475 5.293 3.293C5.475 3.111 5.724 3 6 3H12Z" fill="black"/>
</svg>
