<svg width="24" height="24" viewBox="0 0 24 24" fill="none" xmlns="http://www.w3.org/2000/svg">
<path d="M21 11.08V12C20.999 14.485 19.991 16.733 18.36 18.362C16.729 19.991 14.48 20.996 11.995 20.994C9.51 20.992 7.261 19.985 5.633 18.354C4.005 16.723 2.999 14.475 3 11.989C3.001 9.503 4.009 7.256 5.64 5.627C7.271 3.99801 9.52 2.99301 12.005 2.99401C13.335 2.99501 14.591 3.28301 15.654 3.76901C16.156 3.99901 16.75 3.77701 16.979 3.27501C17.208 2.77301 16.987 2.17901 16.485 1.95001C15.158 1.34401 13.619 0.995006 12.006 0.994006C8.969 0.992006 6.217 2.22301 4.226 4.21101C2.235 6.199 1.002 8.951 1 11.988C0.998002 15.025 2.229 17.777 4.217 19.768C6.205 21.759 8.956 22.993 11.993 22.994C15.03 22.995 17.782 21.765 19.773 19.777C21.764 17.789 22.998 15.038 23 12V11.08C23 10.528 22.552 10.08 22 10.08C21.448 10.08 21 10.528 21 11.08V11.08ZM21.293 3.29301L12 12.595L9.707 10.303C9.316 9.912 8.683 9.912 8.293 10.303C7.903 10.694 7.902 11.327 8.293 11.717L11.293 14.717C11.684 15.108 12.317 15.107 12.708 14.717L22.708 4.707C23.098 4.316 23.098 3.68301 22.707 3.29301C22.316 2.90301 21.683 2.90301 21.293 3.29401V3.29301Z" fill="black"/>
</svg>
