<svg width="24" height="24" viewBox="0 0 24 24" fill="none" xmlns="http://www.w3.org/2000/svg">
<path d="M12.707 18.293L7.414 13H19C19.552 13 20 12.552 20 12C20 11.448 19.552 11 19 11H7.414L12.707 5.707C13.098 5.316 13.098 4.683 12.707 4.293C12.316 3.903 11.683 3.902 11.293 4.293L4.293 11.293C4.197 11.389 4.125 11.499 4.076 11.617C4.025 11.739 4 11.87 4 12C4 12.256 4.098 12.512 4.293 12.707L11.293 19.707C11.684 20.098 12.317 20.098 12.707 19.707C13.097 19.316 13.098 18.683 12.707 18.293V18.293Z" fill="black"/>
</svg>
