<svg width="24" height="24" viewBox="0 0 24 24" fill="none" xmlns="http://www.w3.org/2000/svg">
<path d="M12 21H21C21.552 21 22 20.552 22 20C22 19.448 21.552 19 21 19H12C11.448 19 11 19.448 11 20C11 20.552 11.448 21 12 21ZM15.793 2.793L3.29302 15.293C3.17102 15.414 3.07602 15.573 3.03002 15.758L2.03002 19.758C1.99102 19.908 1.98802 20.076 2.03002 20.243C2.16402 20.779 2.70702 21.105 3.24302 20.971L7.24302 19.971C7.41002 19.93 7.57302 19.842 7.70802 19.708L20.208 7.208C20.817 6.599 21.122 5.798 21.122 5.001C21.122 4.204 20.817 3.403 20.208 2.794C19.599 2.185 18.797 1.879 18 1.879C17.203 1.879 16.402 2.184 15.793 2.793V2.793ZM17.207 4.207C17.426 3.988 17.711 3.879 18 3.879C18.289 3.879 18.574 3.988 18.793 4.207C19.012 4.426 19.121 4.711 19.121 5C19.121 5.289 19.012 5.574 18.793 5.793L6.48902 18.097L4.37402 18.626L4.90302 16.511L17.207 4.207Z" fill="black"/>
</svg>
