<svg width="24" height="24" viewBox="0 0 24 24" fill="none" xmlns="http://www.w3.org/2000/svg">
<path d="M11.293 5.70701L16.586 11H5C4.448 11 4 11.448 4 12C4 12.552 4.448 13 5 13H16.586L11.293 18.293C10.902 18.684 10.902 19.317 11.293 19.707C11.684 20.097 12.317 20.098 12.707 19.707L19.707 12.707C19.799 12.615 19.873 12.505 19.924 12.383C20.025 12.138 20.025 11.862 19.924 11.617C19.875 11.499 19.803 11.389 19.707 11.293L12.707 4.29301C12.316 3.90201 11.683 3.90201 11.293 4.29301C10.903 4.68401 10.902 5.31701 11.293 5.70701V5.70701Z" fill="black"/>
</svg>
