<svg width="24" height="24" viewBox="0 0 24 24" fill="none" xmlns="http://www.w3.org/2000/svg">
<g clip-path="url(#clip0_9_142)">
<path d="M16 12C16 10.896 15.551 9.894 14.828 9.172C14.105 8.45 13.104 8 12 8C10.896 8 9.894 8.449 9.172 9.172C8.45 9.895 8 10.896 8 12C8 13.104 8.449 14.106 9.172 14.828C9.895 15.55 10.896 16 12 16C13.104 16 14.106 15.551 14.828 14.828C15.55 14.105 16 13.104 16 12ZM14 12C14 12.553 13.777 13.051 13.414 13.414C13.051 13.777 12.553 14 12 14C11.447 14 10.949 13.777 10.586 13.414C10.223 13.051 10 12.553 10 12C10 11.447 10.223 10.949 10.586 10.586C10.949 10.223 11.447 10 12 10C12.553 10 13.051 10.223 13.414 10.586C13.777 10.949 14 11.447 14 12ZM20.315 15.404C20.361 15.299 20.427 15.213 20.507 15.147C20.619 15.055 20.758 15.001 20.91 15H21C21.828 15 22.58 14.663 23.121 14.121C23.662 13.579 24 12.828 24 12C24 11.172 23.663 10.42 23.121 9.879C22.579 9.338 21.828 9 21 9H20.841C20.731 8.999 20.626 8.972 20.533 8.924C20.406 8.858 20.303 8.752 20.241 8.612C20.238 8.583 20.237 8.553 20.237 8.523C20.213 8.468 20.197 8.412 20.188 8.355C20.208 8.021 20.265 7.901 20.356 7.808L20.418 7.746C21.003 7.16 21.296 6.39 21.295 5.624C21.294 4.858 21.001 4.088 20.414 3.502C19.828 2.917 19.058 2.624 18.292 2.625C17.526 2.626 16.756 2.919 16.172 3.504L16.126 3.55C16.043 3.63 15.943 3.686 15.838 3.716C15.698 3.755 15.547 3.748 15.4 3.683C15.299 3.639 15.213 3.573 15.147 3.493C15.055 3.381 15.001 3.242 15 3.09V3C15 2.172 14.663 1.42 14.121 0.879C13.579 0.338 12.828 0 12 0C11.172 0 10.42 0.337 9.879 0.879C9.338 1.421 9 2.172 9 3V3.159C8.999 3.269 8.972 3.374 8.924 3.467C8.858 3.594 8.752 3.697 8.612 3.759C8.583 3.762 8.553 3.763 8.523 3.763C8.468 3.787 8.412 3.803 8.355 3.812C8.02 3.791 7.9 3.734 7.807 3.643L7.745 3.581C7.159 2.996 6.39 2.703 5.623 2.703C4.856 2.703 4.088 2.997 3.501 3.585C2.916 4.171 2.623 4.94 2.623 5.707C2.623 6.474 2.917 7.243 3.502 7.827L3.55 7.874C3.63 7.957 3.686 8.057 3.716 8.162C3.755 8.302 3.748 8.453 3.685 8.596C3.679 8.612 3.672 8.63 3.664 8.648C3.623 8.757 3.556 8.851 3.473 8.923C3.363 9.018 3.223 9.076 3.09 9.079H3C2.172 9.079 1.42 9.416 0.879 9.958C0.338 10.5 0 11.252 0 12.08C0 12.908 0.337 13.66 0.879 14.201C1.421 14.742 2.172 15.08 3 15.08H3.159C3.269 15.081 3.374 15.108 3.467 15.156C3.595 15.223 3.7 15.33 3.763 15.477C3.787 15.532 3.803 15.588 3.812 15.645C3.792 15.979 3.735 16.099 3.644 16.192L3.582 16.254C2.997 16.84 2.704 17.61 2.705 18.376C2.706 19.142 2.999 19.912 3.586 20.498C4.172 21.083 4.942 21.376 5.708 21.375C6.474 21.374 7.244 21.081 7.828 20.496L7.875 20.448C7.958 20.368 8.058 20.312 8.163 20.282C8.303 20.243 8.454 20.25 8.597 20.313C8.613 20.319 8.631 20.326 8.649 20.334C8.758 20.375 8.852 20.442 8.924 20.525C9.019 20.635 9.077 20.775 9.08 20.908V21C9.08 21.828 9.417 22.58 9.959 23.121C10.501 23.662 11.252 24 12.08 24C12.908 24 13.66 23.663 14.201 23.121C14.742 22.579 15.08 21.828 15.08 21V20.841C15.081 20.731 15.108 20.626 15.156 20.533C15.223 20.405 15.33 20.3 15.477 20.237C15.532 20.213 15.588 20.197 15.645 20.188C15.979 20.208 16.099 20.265 16.192 20.356L16.254 20.418C16.84 21.003 17.61 21.296 18.376 21.295C19.142 21.294 19.912 21.001 20.498 20.414C21.083 19.828 21.376 19.058 21.375 18.292C21.374 17.526 21.081 16.756 20.496 16.172L20.448 16.125C20.368 16.042 20.312 15.942 20.282 15.837C20.243 15.697 20.25 15.546 20.313 15.403L20.315 15.404ZM18.396 9.302C18.384 9.101 18.358 9.005 18.32 8.92V9C18.32 9.043 18.323 9.084 18.328 9.125C18.349 9.185 18.371 9.244 18.396 9.302C18.4 9.392 18.401 9.393 18.401 9.394C18.65 9.975 19.085 10.424 19.609 10.697C19.98 10.89 20.394 10.995 20.82 11H21C21.276 11 21.525 11.111 21.707 11.293C21.889 11.475 22 11.724 22 12C22 12.276 21.889 12.525 21.707 12.707C21.525 12.889 21.276 13 21 13H20.91C20.273 13.003 19.69 13.228 19.235 13.603C18.912 13.869 18.654 14.21 18.485 14.596C18.228 15.178 18.197 15.806 18.358 16.378C18.477 16.801 18.699 17.192 19.01 17.514L19.082 17.587C19.278 17.783 19.376 18.037 19.376 18.294C19.376 18.551 19.279 18.806 19.084 19.001C18.887 19.198 18.633 19.296 18.375 19.296C18.117 19.296 17.863 19.199 17.668 19.004L17.607 18.943C17.144 18.49 16.567 18.241 15.975 18.191C15.538 18.154 15.093 18.225 14.682 18.403C14.104 18.651 13.655 19.086 13.382 19.609C13.189 19.98 13.084 20.394 13.079 20.82V21.001C13.079 21.277 12.968 21.526 12.786 21.708C12.604 21.89 12.356 22 12.08 22C11.804 22 11.555 21.889 11.373 21.707C11.191 21.525 11.08 21.276 11.08 21V20.91C11.065 20.25 10.825 19.668 10.436 19.218C10.152 18.89 9.79 18.633 9.378 18.474C8.803 18.227 8.185 18.2 7.622 18.358C7.199 18.477 6.808 18.699 6.486 19.01L6.413 19.082C6.217 19.278 5.963 19.376 5.706 19.376C5.449 19.376 5.194 19.279 4.999 19.084C4.802 18.887 4.704 18.633 4.704 18.375C4.704 18.117 4.801 17.863 4.996 17.668L5.057 17.607C5.51 17.144 5.759 16.567 5.809 15.975C5.846 15.538 5.775 15.093 5.597 14.682C5.349 14.104 4.914 13.655 4.391 13.382C4.02 13.189 3.606 13.084 3.18 13.079L3 13.08C2.724 13.08 2.475 12.969 2.293 12.787C2.111 12.605 2 12.356 2 12.08C2 11.804 2.111 11.555 2.293 11.373C2.475 11.191 2.724 11.08 3 11.08H3.09C3.75 11.065 4.332 10.825 4.782 10.436C5.11 10.152 5.367 9.79 5.526 9.378C5.773 8.803 5.8 8.185 5.642 7.622C5.523 7.199 5.301 6.808 4.99 6.486L4.917 6.413C4.721 6.217 4.623 5.963 4.623 5.706C4.623 5.449 4.72 5.194 4.915 4.999C5.112 4.802 5.366 4.704 5.624 4.704C5.882 4.704 6.136 4.801 6.331 4.996L6.392 5.057C6.855 5.51 7.432 5.759 8.024 5.809C8.394 5.841 8.769 5.795 9.125 5.672C9.221 5.66 9.311 5.636 9.391 5.6C9.36 5.601 9.33 5.603 9.302 5.604C9.101 5.616 9.005 5.642 8.92 5.68H9C9.043 5.68 9.084 5.677 9.125 5.672C9.185 5.651 9.244 5.629 9.302 5.604C9.392 5.6 9.393 5.599 9.394 5.599C9.975 5.35 10.424 4.915 10.697 4.391C10.89 4.021 10.995 3.606 11 3.181V3C11 2.724 11.111 2.475 11.293 2.293C11.475 2.111 11.724 2 12 2C12.276 2 12.525 2.111 12.707 2.293C12.889 2.475 13 2.724 13 3V3.09C13.003 3.727 13.228 4.31 13.603 4.765C13.869 5.088 14.21 5.346 14.599 5.516C15.177 5.771 15.805 5.802 16.377 5.641C16.8 5.522 17.191 5.3 17.513 4.989L17.586 4.917C17.782 4.721 18.036 4.623 18.293 4.623C18.55 4.623 18.805 4.72 19 4.915C19.197 5.112 19.295 5.366 19.295 5.624C19.295 5.882 19.198 6.136 19.003 6.331L18.942 6.392C18.489 6.855 18.24 7.432 18.19 8.024C18.158 8.394 18.204 8.769 18.327 9.125C18.339 9.22 18.364 9.31 18.399 9.391C18.398 9.359 18.397 9.329 18.395 9.302H18.396Z" fill="black"/>
</g>
<defs>
<clipPath id="clip0_9_142">
<rect width="24" height="24" fill="white"/>
</clipPath>
</defs>
</svg>
