<svg width="24" height="24" viewBox="0 0 24 24" fill="none" xmlns="http://www.w3.org/2000/svg">
<path d="M23 12C23 8.963 21.768 6.211 19.778 4.222C17.788 2.233 15.037 1 12 1C8.963 1 6.211 2.232 4.222 4.222C2.233 6.212 1 8.963 1 12C1 15.037 2.232 17.789 4.222 19.778C6.212 21.767 8.963 23 12 23C15.037 23 17.789 21.768 19.778 19.778C21.767 17.788 23 15.037 23 12ZM21 12C21 14.486 19.994 16.734 18.364 18.364C16.734 19.994 14.486 21 12 21C9.514 21 7.266 19.994 5.636 18.364C4.006 16.734 3 14.486 3 12C3 9.514 4.006 7.266 5.636 5.636C7.266 4.006 9.514 3 12 3C14.486 3 16.734 4.006 18.364 5.636C19.994 7.266 21 9.514 21 12ZM7.2 14.6C7.2 14.6 7.331 14.773 7.531 14.983C7.676 15.136 7.869 15.324 8.108 15.523C8.445 15.804 8.88 16.113 9.405 16.376C10.11 16.728 10.984 17 12 17C13.016 17 13.89 16.728 14.595 16.376C15.12 16.113 15.555 15.804 15.892 15.523C16.131 15.324 16.324 15.136 16.469 14.983C16.669 14.773 16.8 14.6 16.8 14.6C17.131 14.158 17.042 13.531 16.6 13.2C16.158 12.869 15.531 12.958 15.2 13.4C15.159 13.45 15.019 13.606 15.019 13.606C14.919 13.711 14.782 13.845 14.611 13.988C14.368 14.191 14.062 14.407 13.701 14.588C13.221 14.827 12.651 15 12 15C11.349 15 10.779 14.827 10.299 14.587C9.939 14.407 9.632 14.19 9.389 13.987C9.218 13.844 9.081 13.71 8.981 13.605C8.841 13.45 8.8 13.4 8.8 13.4C8.469 12.958 7.842 12.869 7.4 13.2C6.958 13.531 6.869 14.158 7.2 14.6V14.6ZM9 10C9.552 10 10 9.552 10 9C10 8.448 9.552 8 9 8C8.448 8 8 8.448 8 9C8 9.552 8.448 10 9 10ZM15 10C15.552 10 16 9.552 16 9C16 8.448 15.552 8 15 8C14.448 8 14 8.448 14 9C14 9.552 14.448 10 15 10Z" fill="black"/>
</svg>
