<svg width="24" height="24" viewBox="0 0 24 24" fill="none" xmlns="http://www.w3.org/2000/svg">
<path d="M12.897 1.557C12.805 1.368 12.649 1.205 12.443 1.103C11.948 0.859001 11.348 1.062 11.104 1.557L8.24599 7.346L1.85499 8.281C1.64699 8.31 1.44399 8.408 1.28399 8.572C0.897993 8.968 0.906993 9.601 1.30199 9.986L5.92499 14.489L4.83399 20.851C4.79799 21.058 4.82799 21.282 4.93499 21.485C5.19199 21.974 5.79699 22.162 6.28599 21.905L12 18.9L17.715 21.905C17.901 22.004 18.123 22.044 18.349 22.006C18.893 21.913 19.259 21.396 19.166 20.851L18.075 14.489L22.698 9.986C22.849 9.84 22.957 9.642 22.99 9.414C23.07 8.868 22.692 8.36 22.145 8.28L15.755 7.346L12.897 1.557ZM12 4.259L14.193 8.703C14.344 9.008 14.629 9.202 14.945 9.25L19.851 9.967L16.302 13.424C16.058 13.662 15.961 13.993 16.014 14.309L16.851 19.192L12.465 16.885C12.164 16.727 11.818 16.737 11.534 16.885L7.14799 19.192L7.98499 14.309C8.04299 13.973 7.92599 13.648 7.69699 13.424L4.14799 9.967L9.05499 9.249C9.39099 9.2 9.66399 8.989 9.80699 8.703L12 4.259Z" fill="black"/>
</svg>
