<svg width="24" height="24" viewBox="0 0 24 24" fill="none" xmlns="http://www.w3.org/2000/svg">
<path d="M18 7V20C18 20.276 17.889 20.525 17.707 20.707C17.525 20.889 17.276 21 17 21H7C6.724 21 6.475 20.889 6.293 20.707C6.111 20.525 6 20.276 6 20V7H18ZM17 5V4C17 3.172 16.663 2.42 16.121 1.879C15.579 1.338 14.828 1 14 1H10C9.172 1 8.42 1.337 7.879 1.879C7.338 2.421 7 3.172 7 4V5H3C2.448 5 2 5.448 2 6C2 6.552 2.448 7 3 7H4V20C4 20.828 4.337 21.58 4.879 22.121C5.421 22.662 6.172 23 7 23H17C17.828 23 18.58 22.663 19.121 22.121C19.662 21.579 20 20.828 20 20V7H21C21.552 7 22 6.552 22 6C22 5.448 21.552 5 21 5H17ZM9 5V4C9 3.724 9.111 3.475 9.293 3.293C9.475 3.111 9.724 3 10 3H14C14.276 3 14.525 3.111 14.707 3.293C14.889 3.475 15 3.724 15 4V5H9ZM9 11V17C9 17.552 9.448 18 10 18C10.552 18 11 17.552 11 17V11C11 10.448 10.552 10 10 10C9.448 10 9 10.448 9 11ZM13 11V17C13 17.552 13.448 18 14 18C14.552 18 15 17.552 15 17V11C15 10.448 14.552 10 14 10C13.448 10 13 10.448 13 11Z" fill="black"/>
</svg>
