<svg width="24" height="24" viewBox="0 0 24 24" fill="none" xmlns="http://www.w3.org/2000/svg">
<path d="M21 21V19C21 17.62 20.439 16.368 19.536 15.464C18.633 14.56 17.38 14 16 14H8C6.62 14 5.368 14.561 4.464 15.464C3.56 16.367 3 17.62 3 19V21C3 21.552 3.448 22 4 22C4.552 22 5 21.552 5 21V19C5 18.171 5.335 17.423 5.879 16.879C6.423 16.335 7.171 16 8 16H16C16.829 16 17.577 16.335 18.121 16.879C18.665 17.423 19 18.171 19 19V21C19 21.552 19.448 22 20 22C20.552 22 21 21.552 21 21ZM17 7C17 5.62 16.439 4.368 15.536 3.464C14.633 2.56 13.38 2 12 2C10.62 2 9.368 2.561 8.464 3.464C7.56 4.367 7 5.62 7 7C7 8.38 7.561 9.632 8.464 10.536C9.367 11.44 10.62 12 12 12C13.38 12 14.632 11.439 15.536 10.536C16.44 9.633 17 8.38 17 7ZM15 7C15 7.829 14.665 8.577 14.121 9.121C13.577 9.665 12.829 10 12 10C11.171 10 10.423 9.665 9.879 9.121C9.335 8.577 9 7.829 9 7C9 6.171 9.335 5.423 9.879 4.879C10.423 4.335 11.171 4 12 4C12.829 4 13.577 4.335 14.121 4.879C14.665 5.423 15 6.171 15 7Z" fill="black"/>
</svg>
