<svg width="24" height="24" viewBox="0 0 24 24" fill="none" xmlns="http://www.w3.org/2000/svg">
<path d="M16.293 2.293L2.79299 15.793C2.67599 15.909 2.58299 16.061 2.53499 16.237L1.03499 21.737C0.988993 21.9 0.985993 22.083 1.03499 22.263C1.17999 22.796 1.72999 23.11 2.26299 22.965L7.76299 21.465C7.92199 21.423 8.07799 21.336 8.20699 21.207L21.707 7.707C22.454 6.96 22.828 5.978 22.828 5C22.828 4.022 22.454 3.04 21.707 2.293C20.96 1.546 19.978 1.172 19 1.172C18.022 1.172 17.04 1.546 16.293 2.293V2.293ZM17.707 3.707C18.064 3.35 18.531 3.172 19 3.172C19.469 3.172 19.936 3.35 20.293 3.708C20.65 4.066 20.828 4.531 20.828 5C20.828 5.469 20.65 5.936 20.293 6.293L6.98099 19.605L3.42499 20.575L4.39499 17.02L17.707 3.707Z" fill="black"/>
</svg>
